<?xml version="1.0" encoding="UTF-8"?>
<svg id="_레이어_1" data-name="레이어_1" xmlns="http://www.w3.org/2000/svg" viewBox="0 0 179.68 54.9">
  <defs>
    <style>
      .cls-1 {
        fill: #25aae1;
      }

      .cls-2 {
        fill: #fff;
      }

      .cls-3 {
        fill: #fec404;
      }
    </style>
  </defs>
  <path id="_패스_1" data-name="패스_1" class="cls-2" d="M6.03,50.22c.27-.22.49-.5.64-.81.17-.36.23-.76.17-1.15-.08-.52-.35-.98-.76-1.31-.23-.18-.49-.32-.76-.41-.33-.11-.67-.16-1.02-.16H.77v8.23h3.45c.38,0,.75-.05,1.11-.15.33-.1.65-.25.93-.47.26-.19.48-.44.65-.72.17-.3.26-.63.28-.97.02-.24,0-.48-.07-.72-.06-.21-.15-.41-.27-.59-.11-.16-.24-.31-.39-.44-.13-.12-.27-.23-.42-.33ZM4.1,49.65h-1.9v-1.9h1.92c.32-.02.63.06.9.23.21.15.32.4.31.65.02.29-.11.56-.33.75-.26.19-.58.29-.9.27ZM4.2,53.26h-1.99v-2.24h2.01c.37-.02.74.08,1.05.28.25.18.39.48.36.79,0,.33-.14.64-.37.86-.3.23-.68.34-1.06.31ZM16.86,46.39h-1.45v5.49c0,.38-.14.74-.38,1.03-.15.17-.34.31-.55.4-.26.11-.55.16-.83.15-.29,0-.58-.04-.86-.15-.21-.09-.4-.23-.55-.4-.13-.15-.23-.33-.29-.52-.05-.17-.08-.34-.08-.52v-5.49h-1.46v5.61c0,.36.07.73.21,1.06.14.34.35.65.61.9.29.27.63.49,1.01.62.45.16.92.24,1.4.23.47,0,.93-.07,1.37-.23.37-.14.71-.35,1-.62.27-.25.48-.56.63-.9.14-.34.21-.7.21-1.06v-5.61ZM25.15,50.15c-.22-.09-.45-.17-.68-.23-.23-.06-.45-.12-.67-.16-.21-.05-.42-.08-.61-.11-.17-.03-.33-.08-.49-.14-.2-.05-.39-.14-.56-.27-.18-.15-.28-.39-.25-.63,0-.29.13-.57.35-.77.68-.51,1.61-.47,2.25.09.26.33.4.74.38,1.17h1.5c0-.32-.06-.64-.15-.94-.1-.35-.27-.67-.51-.95-.26-.31-.58-.57-.94-.75-.46-.21-.96-.32-1.46-.3-.44,0-.88.07-1.3.22-.34.13-.66.33-.92.58-.25.22-.45.48-.58.79-.13.27-.2.57-.2.87-.05.5.1,1,.41,1.39.36.38.81.67,1.3.84.19.08.39.14.6.18.2.03.4.07.59.1s.38.07.58.1c.19.04.37.1.55.17.22.1.41.24.58.41.13.17.18.39.13.6-.06.33-.24.62-.49.83-.34.24-.75.35-1.16.32-.47.02-.94-.15-1.29-.47-.37-.4-.57-.94-.54-1.48h-1.51c0,.42.08.84.22,1.24.13.39.34.75.61,1.06.29.32.64.57,1.03.73.46.19.96.29,1.46.28.45,0,.9-.06,1.33-.19.36-.11.69-.29.98-.52.25-.22.47-.48.63-.77.15-.29.26-.61.3-.93.07-.48-.03-.97-.3-1.37-.28-.42-.68-.76-1.14-.96ZM37.15,54.59l-3.32-8.19h-1.52l-3.31,8.19h1.48l.8-1.91h3.59l.8,1.91h1.49ZM34.3,51.3h-2.49l1.25-3.06,1.24,3.06ZM46.42,54.59v-8.19h-1.45v5.71l-3.57-5.72h-1.51v8.2h1.44v-5.72l3.57,5.72h1.52ZM59.29,50.15c-.22-.09-.45-.17-.68-.23-.23-.06-.45-.11-.67-.16-.21-.05-.42-.08-.62-.11-.17-.03-.33-.08-.49-.15-.2-.05-.39-.14-.56-.27-.18-.15-.28-.39-.25-.63,0-.29.13-.57.35-.77.68-.51,1.61-.47,2.25.09.26.33.4.74.38,1.17h1.51c0-.32-.06-.64-.15-.94-.1-.35-.27-.67-.51-.95-.26-.31-.58-.57-.94-.75-.46-.21-.96-.32-1.46-.3-.44,0-.88.07-1.3.22-.34.13-.66.33-.92.58-.25.22-.44.49-.58.79-.13.27-.2.57-.2.87-.05.5.1,1,.41,1.39.36.38.81.67,1.3.84.19.08.39.14.6.18.2.03.4.07.59.1.19.03.38.07.58.1.19.04.37.1.55.17.22.1.41.24.58.41.13.17.18.39.13.6-.06.33-.24.62-.49.83-.34.24-.75.35-1.16.32-.47.02-.94-.15-1.29-.47-.37-.4-.57-.94-.54-1.48h-1.51c0,.42.08.84.22,1.24.13.39.34.75.61,1.06.29.32.64.57,1.03.73.46.2.96.29,1.46.29.45,0,.9-.06,1.33-.19.36-.11.69-.29.98-.52.25-.22.47-.48.63-.77.15-.29.26-.61.3-.93.07-.48-.03-.97-.3-1.37-.28-.43-.68-.76-1.15-.97ZM69.5,51.7c-.12.46-.35.89-.68,1.25-.36.37-.87.56-1.38.52-.66.03-1.29-.27-1.68-.8-.43-.64-.64-1.41-.6-2.18-.04-.75.17-1.49.6-2.11.39-.53,1.02-.82,1.68-.79.27,0,.54.04.8.13.22.08.41.19.59.34.16.14.29.3.4.48.11.18.2.37.27.56h1.55c-.09-.35-.23-.68-.4-.99-.18-.35-.42-.66-.71-.93-.68-.64-1.58-.98-2.5-.95-.55-.01-1.09.09-1.6.3-.46.2-.87.49-1.2.87-.34.39-.6.85-.75,1.34-.18.57-.27,1.16-.26,1.75,0,.61.08,1.21.26,1.79.15.5.41.96.75,1.36.33.38.74.67,1.2.87.51.21,1.05.31,1.6.3.49.01.98-.08,1.43-.26.4-.16.76-.4,1.06-.7.29-.29.53-.63.71-.99.18-.37.32-.76.41-1.15h-1.55ZM75.92,54.59v-8.19h-1.43v8.19h1.43ZM85.62,54.59v-1.33h-4.5v-2.22h4.23v-1.36h-4.24v-1.93h4.42v-1.36h-5.86v8.19h5.95ZM95.48,54.59v-8.19h-1.45v5.71l-3.57-5.72h-1.51v8.2h1.44v-5.72l3.57,5.72h1.52ZM104.77,51.7c-.12.46-.35.89-.68,1.25-.36.37-.87.56-1.38.52-.66.03-1.29-.27-1.68-.8-.43-.64-.64-1.41-.6-2.18-.04-.75.17-1.49.6-2.11.39-.53,1.02-.82,1.68-.79.27,0,.54.04.8.13.22.08.41.19.59.34.16.14.29.3.4.48.1.18.19.37.26.56h1.55c-.09-.35-.23-.68-.4-.99-.18-.35-.42-.66-.71-.93-.68-.64-1.58-.98-2.5-.95-.55-.01-1.09.09-1.6.3-.46.2-.87.49-1.2.87-.34.39-.6.85-.75,1.34-.18.57-.27,1.16-.26,1.75,0,.61.08,1.21.26,1.79.15.5.41.96.75,1.36.33.38.74.67,1.2.87.51.21,1.05.31,1.6.3.49.01.98-.08,1.43-.26.4-.16.76-.4,1.06-.7.29-.29.53-.63.71-.99.18-.37.32-.76.41-1.15h-1.54ZM115.71,54.59v-1.33h-4.5v-2.22h4.23v-1.36h-4.24v-1.93h4.42v-1.36h-5.86v8.19h5.95ZM129.08,51.7c-.12.46-.35.89-.68,1.25-.36.37-.87.56-1.38.52-.66.03-1.29-.27-1.68-.8-.43-.64-.64-1.41-.6-2.18-.04-.75.17-1.49.6-2.11.39-.53,1.02-.82,1.68-.79.27,0,.54.04.8.13.22.08.41.19.59.34.16.14.29.3.4.48.1.18.19.37.26.56h1.55c-.09-.35-.23-.68-.4-.99-.18-.35-.42-.66-.71-.93-.68-.64-1.58-.98-2.51-.95-.55-.01-1.09.09-1.6.3-.46.2-.87.49-1.2.87-.34.39-.6.85-.75,1.34-.18.57-.27,1.16-.26,1.75,0,.61.08,1.21.26,1.79.15.5.41.96.75,1.36.33.38.74.67,1.2.87.51.21,1.05.31,1.6.3.49.01.98-.08,1.43-.26.4-.16.76-.4,1.06-.7.29-.29.53-.63.71-.99.18-.37.32-.76.41-1.15h-1.54ZM140.02,54.59v-1.33h-4.5v-2.22h4.23v-1.36h-4.23v-1.93h4.42v-1.36h-5.86v8.19h5.94ZM149.88,54.59v-8.19h-1.45v5.71l-3.57-5.72h-1.51v8.2h1.44v-5.72l3.57,5.72h1.52ZM159.6,47.75v-1.35h-6.63v1.36h2.57v6.84h1.46v-6.84h2.6ZM168.64,54.59v-1.33h-4.5v-2.22h4.23v-1.36h-4.23v-1.93h4.42v-1.36h-5.86v8.19h5.94ZM178.82,54.6l-2.36-3.43c.5-.18.94-.49,1.27-.9.33-.4.51-.9.5-1.41,0-.35-.07-.7-.22-1.01-.14-.3-.35-.57-.6-.78-.27-.23-.58-.4-.91-.51-.36-.12-.75-.18-1.13-.18h-3.39v8.2h1.44v-3.22h1.38l2.25,3.24h1.78ZM175.35,49.99h-1.94v-2.24h2.02c.31,0,.62.09.88.26.27.19.43.52.4.85,0,.18-.04.36-.13.51-.08.14-.18.26-.31.35-.13.09-.28.16-.44.2-.16.04-.32.06-.49.07h0Z"/>
  <polygon class="cls-2" points="35.71 26.09 31.89 26.09 31.89 34.79 47.2 34.79 47.2 31.6 35.71 31.6 35.71 26.09"/>
  <path class="cls-2" d="M32.71,20.59c.47-.51.9-1.04,1.31-1.6.34.52.72,1,1.15,1.44.39.41.8.79,1.23,1.15.35.29.79.62,1.32.99.6.41,1.22.79,1.87,1.14l2.1-2.67h0c-.94-.53-1.83-1.17-2.63-1.89-.69-.61-1.29-1.32-1.77-2.1-.48-.76-.81-1.59-.99-2.47-.2-.96-.3-1.95-.3-2.93v-2.61h-4.02v2.41c0,1.06-.14,2.12-.42,3.15-.24.94-.61,1.85-1.11,2.69-.56.88-1.24,1.69-2.01,2.4-.86.81-1.81,1.53-2.82,2.14l2.3,2.59c.48-.27,1.01-.6,1.58-.99.6-.42,1.18-.87,1.72-1.36.54-.48,1.03-.96,1.48-1.45Z"/>
  <polygon class="cls-2" points="176.12 16.75 176.12 8.48 172.33 8.48 172.33 27.67 176.12 27.67 176.12 19.88 179.68 19.88 179.68 16.75 176.12 16.75"/>
  <path class="cls-2" d="M60.1,23.59v-6.49h-3.76v6.64h-4.34v3.08l4.37-.03c.92,0,1.94-.02,3.06-.07,1.12-.05,2.23-.11,3.32-.19,1.09-.08,2.1-.15,3.03-.23.93-.08,1.68-.16,2.26-.26v-3.02c-.86.11-2.02.22-3.48.33-1.46.11-2.94.19-4.45.24Z"/>
  <polygon class="cls-2" points="72.69 8.5 68.92 8.5 68.92 31.14 72.69 31.14 72.69 20.74 76.31 20.74 76.31 17.56 72.69 17.56 72.69 8.5"/>
  <polygon class="cls-2" points="46.8 8.45 43.01 8.45 43.01 27.87 46.8 27.87 46.8 18.85 50.45 18.85 50.45 15.63 46.8 15.63 46.8 8.45"/>
  <path class="cls-2" d="M165.44,14.18c-.05.66-.12,1.33-.22,2-.07.69-.17,1.36-.3,2.01-.13.65-.25,1.23-.39,1.72h3.82c.13-.64.27-1.43.42-2.39.14-.96.26-1.94.36-2.96.12-1.02.2-2,.26-2.95.06-.95.09-1.76.09-2.43h-12.44v3.22h8.47c0,.52-.02,1.1-.07,1.77Z"/>
  <polygon class="cls-2" points="65.36 21.61 65.36 21.61 65.36 21.61 65.36 21.61"/>
  <polygon class="cls-2" points="0 26.23 10.14 26.23 10.14 32.24 14.14 32.24 14.14 26.24 24.22 26.24 24.22 23.16 0 23.16 0 26.23"/>
  <path class="cls-2" d="M19.65,9.2h-3.79v2.82h-7.59v-2.82h-3.79v11.92h15.17v-11.92ZM15.86,18.02h-7.59v-2.93h7.59v2.93Z"/>
  <path class="cls-2" d="M62.45,15c-.05.77-.11,1.55-.19,2.36-.1.8-.21,1.59-.34,2.34-.13.76-.27,1.39-.4,1.91h3.85c.2-.86.35-1.74.46-2.62.13-1.03.26-2.11.37-3.22.1-1.11.17-2.19.22-3.25.05-1.05.06-1.96.04-2.73h-12.35v3.22h8.42c0,.56-.02,1.22-.07,1.98Z"/>
  <polygon class="cls-2" points="164.74 26.52 160.92 26.52 160.92 34.79 176.49 34.79 176.49 31.61 164.74 31.61 164.74 26.52"/>
  <path class="cls-2" d="M136.41,34.79h14.6v-9.68h-14.6v9.68ZM140.23,28.22h6.95v3.48h-6.95v-3.48Z"/>
  <path class="cls-2" d="M166.26,24.34c1.09-.08,2.11-.15,3.04-.23s1.7-.16,2.27-.26v-3.02c-.94.11-2.2.23-3.78.34-1.58.12-3.18.2-4.78.26v-5.83h-3.76v5.95h-4.22v3.08l4.88-.03c.92,0,1.94-.02,3.06-.07s2.22-.11,3.29-.19Z"/>
  <rect class="cls-2" x="122.08" y="8.51" width="3.74" height="22.93"/>
  <polygon class="cls-2" points="83.49 28.22 94.72 28.22 94.72 35.06 98.54 35.06 98.54 25.12 83.49 25.12 83.49 28.22"/>
  <path class="cls-2" d="M114.16,20.82c-.59-.77-1.08-1.62-1.45-2.51-.25-.67-.43-1.36-.52-2.07-.12-.83-.17-1.66-.17-2.5h3.85v-3.1h-3.85v-2.76h-3.85v2.76h-3.88v3.1h3.93s0,0,0,0h0s0,0,0,0c-.02.77-.08,1.54-.18,2.3-.09.7-.24,1.39-.44,2.07-.39.99-.92,1.91-1.57,2.75-.87,1.15-1.88,2.18-3,3.09l2.36,2.21c.95-.73,1.84-1.54,2.66-2.41.77-.8,1.47-1.65,2.11-2.56.59.87,1.24,1.69,1.97,2.46.73.8,1.55,1.51,2.43,2.14l2.15-2.33c-.97-.75-1.82-1.64-2.54-2.63Z"/>
  <polygon class="cls-2" points="116.96 15.44 113.77 15.43 113.77 18.56 116.96 18.56 116.96 30.77 120.58 30.77 120.58 8.91 116.96 8.91 116.96 15.44"/>
  <polygon class="cls-2" points="98.54 2.53 94.75 2.53 94.75 18.1 98.54 18.1 98.54 12.5 102.17 12.5 102.17 9.28 98.54 9.28 98.54 2.53"/>
  <g>
    <path class="cls-1" d="M90.39,6h2.84v-3.1h-5.89V0h-4.05v2.9h-6.03v3.1h2.9"/>
    <path class="cls-1" d="M93.24,10.81v-2.55h-2.16c-.18-.7-.47-1.35-.87-1.93l1.59-1.59-3.44-.17c-.58-.35-1.21-.62-1.89-.76V1.58h-2.55v2.24c-.68.14-1.31.4-1.88.75l-3.36.24,1.51,1.51c-.4.58-.7,1.24-.88,1.94h-2.04v2.55h1.94c.13.77.41,1.49.8,2.13l-1.31,1.31,1.8,1.8,1.26-1.26c.64.44,1.38.76,2.17.93v1.84h2.55v-1.84c.8-.17,1.53-.49,2.18-.94l1.33,1.33,1.8-1.8-1.39-1.39c.39-.64.66-1.35.79-2.12h2.06ZM85.64,11.83c-1.57.26-2.9-1.08-2.64-2.64.16-.95.92-1.71,1.87-1.87,1.57-.26,2.9,1.08,2.64,2.64-.16.95-.92,1.71-1.87,1.87Z"/>
  </g>
  <g>
    <polygon class="cls-3" points="147.3 2.5 147.3 9.77 141.52 9.77 141.55 12.96 147.3 12.96 147.3 18.13 151.09 18.13 151.09 2.5 147.3 2.5"/>
    <g>
      <path class="cls-3" d="M142.51,7.75h2.84v-3.1h-5.89V1.75h-4.05v2.9h-6.03v3.1h2.9"/>
      <path class="cls-3" d="M145.36,12.56v-2.55h-2.16c-.18-.7-.47-1.35-.87-1.93l1.59-1.59-3.44-.17c-.58-.35-1.21-.62-1.89-.76v-2.24h-2.55v2.24c-.68.14-1.31.4-1.88.75l-3.36.24,1.51,1.51c-.4.58-.7,1.24-.88,1.94h-2.04v2.55h1.94c.13.77.41,1.49.8,2.13l-1.31,1.31,1.8,1.8,1.26-1.26c.64.44,1.38.76,2.17.93v1.84h2.55v-1.84c.8-.17,1.53-.49,2.18-.94l1.33,1.33,1.8-1.8-1.39-1.39c.39-.64.66-1.35.79-2.12h2.06ZM137.76,13.58c-1.57.26-2.9-1.08-2.64-2.64.16-.95.92-1.71,1.87-1.87,1.57-.26,2.9,1.08,2.64,2.64-.16.95-.92,1.71-1.87,1.87Z"/>
    </g>
  </g>
</svg>